<?xml version="1.0" standalone="no"?><!DOCTYPE svg PUBLIC "-//W3C//DTD SVG 1.1//EN" "http://www.w3.org/Graphics/SVG/1.1/DTD/svg11.dtd"><svg t="1647315928860" class="icon" viewBox="0 0 1024 1024" version="1.1" xmlns="http://www.w3.org/2000/svg" p-id="6285" xmlns:xlink="http://www.w3.org/1999/xlink" width="64" height="64"><defs><style type="text/css"></style></defs><path d="M192 960H96c-17.67 0-32-14.33-32-32V480c0-17.67 14.33-32 32-32h96c17.67 0 32 14.33 32 32v448c0 17.67-14.33 32-32 32z m-64-64h32V512h-32v384zM437.33 960h-96c-17.67 0-32-14.33-32-32V608c0-17.67 14.33-32 32-32h96c17.67 0 32 14.33 32 32v320c0 17.67-14.32 32-32 32z m-64-64h32V640h-32v256zM682.67 960h-96c-17.67 0-32-14.33-32-32V608c0-17.67 14.33-32 32-32h96c17.67 0 32 14.33 32 32v320c0 17.67-14.33 32-32 32z m-64-64h32V640h-32v256zM928 960h-96c-17.67 0-32-14.33-32-32V480c0-17.67 14.33-32 32-32h96c17.67 0 32 14.33 32 32v448c0 17.67-14.33 32-32 32z m-64-64h32V512h-32v384zM512 512c-59.83 0-116.08-23.3-158.39-65.61C311.3 404.08 288 347.83 288 288s23.3-116.08 65.61-158.39C395.92 87.3 452.17 64 512 64s116.08 23.3 158.39 65.61C712.7 171.92 736 228.17 736 288s-23.3 116.08-65.61 158.39C628.08 488.7 571.83 512 512 512z m0-384c-88.22 0-160 71.78-160 160s71.78 160 160 160 160-71.78 160-160-71.78-160-160-160z" p-id="6286" fill="#ffffff"></path><path d="M489.83 375.89v-36.33h-43.36c-9.38 0-14.06-4.28-14.06-12.89 0.77-7.03 5.46-11.32 14.06-12.89h43.36v-19.92h-43.36c-9.38 0-14.06-4.28-14.06-12.89 0.77-7.03 5.46-11.32 14.06-12.89h24.61l-37.5-52.73c-3.92-3.11-5.47-7.42-4.69-12.89 0.77-13.28 8.2-20.69 22.27-22.27 7.03 0.79 12.89 3.92 17.58 9.38l43.36 62.11 43.36-62.11c3.9-5.46 9.76-8.59 17.58-9.38 13.28 1.57 20.69 8.99 22.27 22.27 0 5.47-1.57 9.78-4.69 12.89l-37.5 52.73h24.61c7.8 1.57 12.49 5.86 14.06 12.89-0.79 8.61-5.47 12.89-14.06 12.89h-43.36v19.92h43.36c7.8 1.57 12.49 5.86 14.06 12.89-0.79 8.61-5.47 12.89-14.06 12.89h-43.36v36.33c-0.79 13.29-8.2 19.92-22.27 19.92-14.85 0-22.27-6.63-22.27-19.92z" p-id="6287" fill="#ffffff"></path></svg>